<mxfile host="app.diagrams.net" modified="2023-04-08T23:48:15.430Z" agent="Mozilla/5.0 (Windows NT 10.0; Win64; x64) AppleWebKit/537.36 (KHTML, like Gecko) Chrome/112.0.0.0 Safari/537.36" etag="aTOsHwg9R8iPKopU1PkX" version="21.1.5" type="device">
  <diagram name="Página-1" id="rIHGS3N_cb-u_QOJpUFR">
    <mxGraphModel dx="1707" dy="452" grid="1" gridSize="10" guides="1" tooltips="1" connect="1" arrows="1" fold="1" page="1" pageScale="1" pageWidth="827" pageHeight="1169" math="0" shadow="0">
      <root>
        <mxCell id="0" />
        <mxCell id="1" parent="0" />
        <mxCell id="7S2uJS7P4_R_hy9pWkfV-1" value="" style="rhombus;whiteSpace=wrap;html=1;" parent="1" vertex="1">
          <mxGeometry x="300" y="390" width="140" height="80" as="geometry" />
        </mxCell>
        <mxCell id="7S2uJS7P4_R_hy9pWkfV-2" value="" style="rounded=0;whiteSpace=wrap;html=1;" parent="1" vertex="1">
          <mxGeometry x="310" y="250" width="120" height="60" as="geometry" />
        </mxCell>
        <mxCell id="7S2uJS7P4_R_hy9pWkfV-3" value="&lt;font style=&quot;font-size: 14px;&quot;&gt;Time&lt;/font&gt;" style="text;html=1;strokeColor=none;fillColor=none;align=center;verticalAlign=middle;whiteSpace=wrap;rounded=0;" parent="1" vertex="1">
          <mxGeometry x="340" y="265" width="60" height="30" as="geometry" />
        </mxCell>
        <mxCell id="7S2uJS7P4_R_hy9pWkfV-4" value="&lt;font style=&quot;font-size: 14px;&quot;&gt;Joga&lt;/font&gt;" style="text;html=1;strokeColor=none;fillColor=none;align=center;verticalAlign=middle;whiteSpace=wrap;rounded=0;" parent="1" vertex="1">
          <mxGeometry x="340" y="415" width="60" height="30" as="geometry" />
        </mxCell>
        <mxCell id="7S2uJS7P4_R_hy9pWkfV-5" value="" style="endArrow=none;html=1;rounded=0;entryX=0;entryY=1;entryDx=0;entryDy=0;" parent="1" target="7S2uJS7P4_R_hy9pWkfV-2" edge="1">
          <mxGeometry width="50" height="50" relative="1" as="geometry">
            <mxPoint x="300" y="430" as="sourcePoint" />
            <mxPoint x="350" y="380" as="targetPoint" />
          </mxGeometry>
        </mxCell>
        <mxCell id="7S2uJS7P4_R_hy9pWkfV-6" value="" style="endArrow=none;html=1;rounded=0;entryX=0;entryY=1;entryDx=0;entryDy=0;exitX=0.079;exitY=0.425;exitDx=0;exitDy=0;exitPerimeter=0;" parent="1" source="7S2uJS7P4_R_hy9pWkfV-1" edge="1">
          <mxGeometry width="50" height="50" relative="1" as="geometry">
            <mxPoint x="310" y="410" as="sourcePoint" />
            <mxPoint x="320" y="310" as="targetPoint" />
          </mxGeometry>
        </mxCell>
        <mxCell id="7S2uJS7P4_R_hy9pWkfV-7" value="" style="endArrow=none;html=1;rounded=0;entryX=0;entryY=1;entryDx=0;entryDy=0;exitX=0.929;exitY=0.463;exitDx=0;exitDy=0;exitPerimeter=0;" parent="1" source="7S2uJS7P4_R_hy9pWkfV-1" edge="1">
          <mxGeometry width="50" height="50" relative="1" as="geometry">
            <mxPoint x="410" y="430" as="sourcePoint" />
            <mxPoint x="420" y="310" as="targetPoint" />
          </mxGeometry>
        </mxCell>
        <mxCell id="7S2uJS7P4_R_hy9pWkfV-8" value="" style="endArrow=none;html=1;rounded=0;entryX=0;entryY=1;entryDx=0;entryDy=0;exitX=1;exitY=0.5;exitDx=0;exitDy=0;" parent="1" source="7S2uJS7P4_R_hy9pWkfV-1" edge="1">
          <mxGeometry width="50" height="50" relative="1" as="geometry">
            <mxPoint x="421" y="424" as="sourcePoint" />
            <mxPoint x="430" y="310" as="targetPoint" />
          </mxGeometry>
        </mxCell>
        <mxCell id="7S2uJS7P4_R_hy9pWkfV-9" value="(1,1)" style="text;html=1;strokeColor=none;fillColor=none;align=center;verticalAlign=middle;whiteSpace=wrap;rounded=0;" parent="1" vertex="1">
          <mxGeometry x="240" y="390" width="60" height="30" as="geometry" />
        </mxCell>
        <mxCell id="7S2uJS7P4_R_hy9pWkfV-10" value="(1,1)" style="text;html=1;strokeColor=none;fillColor=none;align=center;verticalAlign=middle;whiteSpace=wrap;rounded=0;" parent="1" vertex="1">
          <mxGeometry x="440" y="390" width="60" height="30" as="geometry" />
        </mxCell>
        <mxCell id="7S2uJS7P4_R_hy9pWkfV-11" value="&lt;font style=&quot;font-size: 19px;&quot;&gt;&lt;b&gt;Relacionamento&lt;br&gt;Recursivo:&lt;br&gt;&lt;/b&gt;&lt;/font&gt;" style="text;html=1;strokeColor=none;fillColor=none;align=center;verticalAlign=middle;whiteSpace=wrap;rounded=0;" parent="1" vertex="1">
          <mxGeometry x="150" y="260" width="60" height="30" as="geometry" />
        </mxCell>
        <mxCell id="7S2uJS7P4_R_hy9pWkfV-13" value="" style="endArrow=classic;html=1;rounded=0;" parent="1" target="7S2uJS7P4_R_hy9pWkfV-14" edge="1">
          <mxGeometry width="50" height="50" relative="1" as="geometry">
            <mxPoint x="450" y="360" as="sourcePoint" />
            <mxPoint x="570" y="330" as="targetPoint" />
          </mxGeometry>
        </mxCell>
        <mxCell id="7S2uJS7P4_R_hy9pWkfV-14" value="Participação&lt;br&gt;Total" style="text;html=1;strokeColor=none;fillColor=none;align=center;verticalAlign=middle;whiteSpace=wrap;rounded=0;" parent="1" vertex="1">
          <mxGeometry x="540" y="315" width="60" height="30" as="geometry" />
        </mxCell>
        <mxCell id="ipqaArvMK3mMuz51LQ_6-1" value="&lt;font style=&quot;&quot;&gt;&lt;b style=&quot;&quot;&gt;&lt;font style=&quot;font-size: 27px;&quot;&gt;&lt;u&gt;Modelo Entidade Relacionamento:&lt;/u&gt;&lt;/font&gt;&lt;br&gt;&lt;/b&gt;&lt;/font&gt;" style="text;html=1;strokeColor=none;fillColor=none;align=center;verticalAlign=middle;whiteSpace=wrap;rounded=0;" parent="1" vertex="1">
          <mxGeometry x="140" y="20" width="500" height="50" as="geometry" />
        </mxCell>
        <mxCell id="ipqaArvMK3mMuz51LQ_6-3" value="&lt;font style=&quot;&quot;&gt;&lt;b style=&quot;&quot;&gt;&lt;font style=&quot;font-size: 27px;&quot;&gt;&lt;u&gt;Modelo Relacional:&lt;/u&gt;&lt;/font&gt;&lt;br&gt;&lt;/b&gt;&lt;/font&gt;" style="text;html=1;strokeColor=none;fillColor=none;align=center;verticalAlign=middle;whiteSpace=wrap;rounded=0;" parent="1" vertex="1">
          <mxGeometry x="120" y="770" width="500" height="50" as="geometry" />
        </mxCell>
        <mxCell id="ipqaArvMK3mMuz51LQ_6-4" value="" style="ellipse;whiteSpace=wrap;html=1;" parent="1" vertex="1">
          <mxGeometry x="50" y="140" width="90" height="40" as="geometry" />
        </mxCell>
        <mxCell id="ipqaArvMK3mMuz51LQ_6-5" value="&lt;u&gt;nome&lt;/u&gt;" style="text;html=1;strokeColor=none;fillColor=none;align=center;verticalAlign=middle;whiteSpace=wrap;rounded=0;" parent="1" vertex="1">
          <mxGeometry x="65" y="145" width="60" height="30" as="geometry" />
        </mxCell>
        <mxCell id="ipqaArvMK3mMuz51LQ_6-6" value="" style="ellipse;whiteSpace=wrap;html=1;" parent="1" vertex="1">
          <mxGeometry x="140" y="140" width="90" height="40" as="geometry" />
        </mxCell>
        <mxCell id="ipqaArvMK3mMuz51LQ_6-7" value="apelido" style="text;html=1;strokeColor=none;fillColor=none;align=center;verticalAlign=middle;whiteSpace=wrap;rounded=0;" parent="1" vertex="1">
          <mxGeometry x="155" y="145" width="60" height="30" as="geometry" />
        </mxCell>
        <mxCell id="ipqaArvMK3mMuz51LQ_6-8" value="" style="ellipse;whiteSpace=wrap;html=1;" parent="1" vertex="1">
          <mxGeometry x="230" y="140" width="90" height="40" as="geometry" />
        </mxCell>
        <mxCell id="ipqaArvMK3mMuz51LQ_6-9" value="data_criacao" style="text;html=1;strokeColor=none;fillColor=none;align=center;verticalAlign=middle;whiteSpace=wrap;rounded=0;" parent="1" vertex="1">
          <mxGeometry x="245" y="145" width="60" height="30" as="geometry" />
        </mxCell>
        <mxCell id="ipqaArvMK3mMuz51LQ_6-10" value="" style="ellipse;whiteSpace=wrap;html=1;" parent="1" vertex="1">
          <mxGeometry x="320" y="140" width="90" height="40" as="geometry" />
        </mxCell>
        <mxCell id="ipqaArvMK3mMuz51LQ_6-11" value="pontos" style="text;html=1;strokeColor=none;fillColor=none;align=center;verticalAlign=middle;whiteSpace=wrap;rounded=0;" parent="1" vertex="1">
          <mxGeometry x="335" y="145" width="60" height="30" as="geometry" />
        </mxCell>
        <mxCell id="ipqaArvMK3mMuz51LQ_6-12" value="" style="ellipse;whiteSpace=wrap;html=1;" parent="1" vertex="1">
          <mxGeometry x="500" y="140" width="100" height="40" as="geometry" />
        </mxCell>
        <mxCell id="ipqaArvMK3mMuz51LQ_6-13" value="gols_marcados" style="text;html=1;strokeColor=none;fillColor=none;align=center;verticalAlign=middle;whiteSpace=wrap;rounded=0;" parent="1" vertex="1">
          <mxGeometry x="520" y="145" width="60" height="30" as="geometry" />
        </mxCell>
        <mxCell id="ipqaArvMK3mMuz51LQ_6-14" value="" style="ellipse;whiteSpace=wrap;html=1;" parent="1" vertex="1">
          <mxGeometry x="410" y="140" width="90" height="40" as="geometry" />
        </mxCell>
        <mxCell id="ipqaArvMK3mMuz51LQ_6-15" value="vitorias" style="text;html=1;strokeColor=none;fillColor=none;align=center;verticalAlign=middle;whiteSpace=wrap;rounded=0;" parent="1" vertex="1">
          <mxGeometry x="425" y="145" width="60" height="30" as="geometry" />
        </mxCell>
        <mxCell id="ipqaArvMK3mMuz51LQ_6-16" value="" style="ellipse;whiteSpace=wrap;html=1;" parent="1" vertex="1">
          <mxGeometry x="600" y="140" width="100" height="40" as="geometry" />
        </mxCell>
        <mxCell id="ipqaArvMK3mMuz51LQ_6-17" value="gols_sofridos" style="text;html=1;strokeColor=none;fillColor=none;align=center;verticalAlign=middle;whiteSpace=wrap;rounded=0;" parent="1" vertex="1">
          <mxGeometry x="620" y="145" width="60" height="30" as="geometry" />
        </mxCell>
        <mxCell id="ipqaArvMK3mMuz51LQ_6-18" value="" style="ellipse;whiteSpace=wrap;html=1;" parent="1" vertex="1">
          <mxGeometry x="700" y="140" width="90" height="40" as="geometry" />
        </mxCell>
        <mxCell id="ipqaArvMK3mMuz51LQ_6-19" value="saldo_gols" style="text;html=1;strokeColor=none;fillColor=none;align=center;verticalAlign=middle;whiteSpace=wrap;rounded=0;" parent="1" vertex="1">
          <mxGeometry x="715" y="145" width="60" height="30" as="geometry" />
        </mxCell>
        <mxCell id="ipqaArvMK3mMuz51LQ_6-20" value="" style="endArrow=none;html=1;rounded=0;" parent="1" edge="1">
          <mxGeometry width="50" height="50" relative="1" as="geometry">
            <mxPoint x="372" y="250" as="sourcePoint" />
            <mxPoint x="370" y="180" as="targetPoint" />
          </mxGeometry>
        </mxCell>
        <mxCell id="ipqaArvMK3mMuz51LQ_6-21" value="" style="ellipse;whiteSpace=wrap;html=1;" parent="1" vertex="1">
          <mxGeometry x="65" y="530" width="90" height="40" as="geometry" />
        </mxCell>
        <mxCell id="ipqaArvMK3mMuz51LQ_6-22" value="&lt;u style=&quot;border-color: var(--border-color);&quot;&gt;rodada&lt;/u&gt;" style="text;html=1;strokeColor=none;fillColor=none;align=center;verticalAlign=middle;whiteSpace=wrap;rounded=0;" parent="1" vertex="1">
          <mxGeometry x="80" y="535" width="60" height="30" as="geometry" />
        </mxCell>
        <mxCell id="ipqaArvMK3mMuz51LQ_6-23" value="" style="ellipse;whiteSpace=wrap;html=1;" parent="1" vertex="1">
          <mxGeometry x="155" y="530" width="105" height="40" as="geometry" />
        </mxCell>
        <mxCell id="ipqaArvMK3mMuz51LQ_6-24" value="&lt;u&gt;time_mandante&lt;/u&gt;" style="text;html=1;strokeColor=none;fillColor=none;align=center;verticalAlign=middle;whiteSpace=wrap;rounded=0;" parent="1" vertex="1">
          <mxGeometry x="177.5" y="535" width="60" height="30" as="geometry" />
        </mxCell>
        <mxCell id="ipqaArvMK3mMuz51LQ_6-25" value="" style="ellipse;whiteSpace=wrap;html=1;" parent="1" vertex="1">
          <mxGeometry x="260" y="530" width="105" height="40" as="geometry" />
        </mxCell>
        <mxCell id="ipqaArvMK3mMuz51LQ_6-26" value="&lt;u&gt;time_visitante&lt;/u&gt;" style="text;html=1;strokeColor=none;fillColor=none;align=center;verticalAlign=middle;whiteSpace=wrap;rounded=0;" parent="1" vertex="1">
          <mxGeometry x="282.5" y="535" width="60" height="30" as="geometry" />
        </mxCell>
        <mxCell id="ipqaArvMK3mMuz51LQ_6-27" value="" style="ellipse;whiteSpace=wrap;html=1;" parent="1" vertex="1">
          <mxGeometry x="365" y="530" width="105" height="40" as="geometry" />
        </mxCell>
        <mxCell id="ipqaArvMK3mMuz51LQ_6-28" value="gols_mandante" style="text;html=1;strokeColor=none;fillColor=none;align=center;verticalAlign=middle;whiteSpace=wrap;rounded=0;" parent="1" vertex="1">
          <mxGeometry x="387.5" y="535" width="60" height="30" as="geometry" />
        </mxCell>
        <mxCell id="ipqaArvMK3mMuz51LQ_6-29" value="" style="ellipse;whiteSpace=wrap;html=1;" parent="1" vertex="1">
          <mxGeometry x="570" y="530" width="100" height="40" as="geometry" />
        </mxCell>
        <mxCell id="ipqaArvMK3mMuz51LQ_6-30" value="total_gols" style="text;html=1;strokeColor=none;fillColor=none;align=center;verticalAlign=middle;whiteSpace=wrap;rounded=0;" parent="1" vertex="1">
          <mxGeometry x="590" y="535" width="60" height="30" as="geometry" />
        </mxCell>
        <mxCell id="ipqaArvMK3mMuz51LQ_6-31" value="" style="ellipse;whiteSpace=wrap;html=1;" parent="1" vertex="1">
          <mxGeometry x="470" y="530" width="100" height="40" as="geometry" />
        </mxCell>
        <mxCell id="ipqaArvMK3mMuz51LQ_6-32" value="gols_visitante" style="text;html=1;strokeColor=none;fillColor=none;align=center;verticalAlign=middle;whiteSpace=wrap;rounded=0;" parent="1" vertex="1">
          <mxGeometry x="490" y="535" width="60" height="30" as="geometry" />
        </mxCell>
        <mxCell id="ipqaArvMK3mMuz51LQ_6-33" value="" style="endArrow=none;html=1;rounded=0;exitX=0.5;exitY=1;exitDx=0;exitDy=0;entryX=0;entryY=0;entryDx=0;entryDy=0;" parent="1" source="7S2uJS7P4_R_hy9pWkfV-1" target="ipqaArvMK3mMuz51LQ_6-27" edge="1">
          <mxGeometry width="50" height="50" relative="1" as="geometry">
            <mxPoint x="370" y="440" as="sourcePoint" />
            <mxPoint x="380" y="530" as="targetPoint" />
          </mxGeometry>
        </mxCell>
        <mxCell id="ipqaArvMK3mMuz51LQ_6-34" value="&lt;font size=&quot;1&quot; style=&quot;&quot;&gt;&lt;b style=&quot;font-size: 17px;&quot;&gt;Time&lt;/b&gt;&lt;/font&gt;" style="text;html=1;strokeColor=none;fillColor=none;align=center;verticalAlign=middle;whiteSpace=wrap;rounded=0;" parent="1" vertex="1">
          <mxGeometry x="40" y="840" width="60" height="30" as="geometry" />
        </mxCell>
        <mxCell id="ipqaArvMK3mMuz51LQ_6-35" value="&lt;font size=&quot;1&quot; style=&quot;&quot;&gt;&lt;b style=&quot;font-size: 17px;&quot;&gt;Jogo&lt;/b&gt;&lt;/font&gt;" style="text;html=1;strokeColor=none;fillColor=none;align=center;verticalAlign=middle;whiteSpace=wrap;rounded=0;" parent="1" vertex="1">
          <mxGeometry x="45" y="970" width="60" height="30" as="geometry" />
        </mxCell>
        <mxCell id="ipqaArvMK3mMuz51LQ_6-36" value="" style="rounded=0;whiteSpace=wrap;html=1;" parent="1" vertex="1">
          <mxGeometry x="55" y="1000" width="97.5" height="40" as="geometry" />
        </mxCell>
        <mxCell id="ipqaArvMK3mMuz51LQ_6-37" value="" style="rounded=0;whiteSpace=wrap;html=1;" parent="1" vertex="1">
          <mxGeometry x="152.5" y="1000" width="97.5" height="40" as="geometry" />
        </mxCell>
        <mxCell id="ipqaArvMK3mMuz51LQ_6-38" value="" style="rounded=0;whiteSpace=wrap;html=1;" parent="1" vertex="1">
          <mxGeometry x="250" y="1000" width="97.5" height="40" as="geometry" />
        </mxCell>
        <mxCell id="ipqaArvMK3mMuz51LQ_6-39" value="" style="rounded=0;whiteSpace=wrap;html=1;" parent="1" vertex="1">
          <mxGeometry x="347.5" y="1000" width="97.5" height="40" as="geometry" />
        </mxCell>
        <mxCell id="ipqaArvMK3mMuz51LQ_6-40" value="" style="rounded=0;whiteSpace=wrap;html=1;" parent="1" vertex="1">
          <mxGeometry x="445" y="1000" width="97.5" height="40" as="geometry" />
        </mxCell>
        <mxCell id="ipqaArvMK3mMuz51LQ_6-41" value="" style="rounded=0;whiteSpace=wrap;html=1;" parent="1" vertex="1">
          <mxGeometry x="542.5" y="1000" width="97.5" height="40" as="geometry" />
        </mxCell>
        <mxCell id="ipqaArvMK3mMuz51LQ_6-44" value="&lt;u style=&quot;border-color: var(--border-color);&quot;&gt;rodada&lt;/u&gt;" style="text;html=1;strokeColor=none;fillColor=none;align=center;verticalAlign=middle;whiteSpace=wrap;rounded=0;" parent="1" vertex="1">
          <mxGeometry x="67.5" y="1005" width="60" height="30" as="geometry" />
        </mxCell>
        <mxCell id="ipqaArvMK3mMuz51LQ_6-45" value="&lt;u&gt;time_mandante&lt;/u&gt;" style="text;html=1;strokeColor=none;fillColor=none;align=center;verticalAlign=middle;whiteSpace=wrap;rounded=0;" parent="1" vertex="1">
          <mxGeometry x="171.25" y="1005" width="60" height="30" as="geometry" />
        </mxCell>
        <mxCell id="ipqaArvMK3mMuz51LQ_6-46" value="&lt;u&gt;time_visitante&lt;/u&gt;" style="text;html=1;strokeColor=none;fillColor=none;align=center;verticalAlign=middle;whiteSpace=wrap;rounded=0;" parent="1" vertex="1">
          <mxGeometry x="268.75" y="1005" width="60" height="30" as="geometry" />
        </mxCell>
        <mxCell id="ipqaArvMK3mMuz51LQ_6-47" value="gols_mandante" style="text;html=1;strokeColor=none;fillColor=none;align=center;verticalAlign=middle;whiteSpace=wrap;rounded=0;" parent="1" vertex="1">
          <mxGeometry x="367.5" y="1005" width="60" height="30" as="geometry" />
        </mxCell>
        <mxCell id="ipqaArvMK3mMuz51LQ_6-48" value="gols_visitante" style="text;html=1;strokeColor=none;fillColor=none;align=center;verticalAlign=middle;whiteSpace=wrap;rounded=0;" parent="1" vertex="1">
          <mxGeometry x="463.75" y="1005" width="60" height="30" as="geometry" />
        </mxCell>
        <mxCell id="ipqaArvMK3mMuz51LQ_6-49" value="total_gols" style="text;html=1;strokeColor=none;fillColor=none;align=center;verticalAlign=middle;whiteSpace=wrap;rounded=0;" parent="1" vertex="1">
          <mxGeometry x="561.25" y="1005" width="60" height="30" as="geometry" />
        </mxCell>
        <mxCell id="ipqaArvMK3mMuz51LQ_6-50" value="&amp;nbsp;Não nulos (rodada, time_mandante, time_visitante)" style="text;html=1;strokeColor=none;fillColor=none;align=center;verticalAlign=middle;whiteSpace=wrap;rounded=0;" parent="1" vertex="1">
          <mxGeometry y="1040" width="380" height="30" as="geometry" />
        </mxCell>
        <mxCell id="ipqaArvMK3mMuz51LQ_6-51" value="&amp;nbsp;Chaves Estrangeiras (time_mandante, time_visitante)&amp;nbsp; Referencia: Time (nome)" style="text;html=1;strokeColor=none;fillColor=none;align=center;verticalAlign=middle;whiteSpace=wrap;rounded=0;" parent="1" vertex="1">
          <mxGeometry x="50" y="1080" width="430" height="30" as="geometry" />
        </mxCell>
        <mxCell id="ipqaArvMK3mMuz51LQ_6-52" value="" style="rounded=0;whiteSpace=wrap;html=1;" parent="1" vertex="1">
          <mxGeometry x="50" y="870" width="100" height="40" as="geometry" />
        </mxCell>
        <mxCell id="ipqaArvMK3mMuz51LQ_6-53" value="" style="rounded=0;whiteSpace=wrap;html=1;" parent="1" vertex="1">
          <mxGeometry x="150" y="870" width="100" height="40" as="geometry" />
        </mxCell>
        <mxCell id="ipqaArvMK3mMuz51LQ_6-54" value="" style="rounded=0;whiteSpace=wrap;html=1;" parent="1" vertex="1">
          <mxGeometry x="250" y="870" width="100" height="40" as="geometry" />
        </mxCell>
        <mxCell id="ipqaArvMK3mMuz51LQ_6-55" value="" style="rounded=0;whiteSpace=wrap;html=1;" parent="1" vertex="1">
          <mxGeometry x="350" y="870" width="100" height="40" as="geometry" />
        </mxCell>
        <mxCell id="ipqaArvMK3mMuz51LQ_6-56" value="" style="rounded=0;whiteSpace=wrap;html=1;" parent="1" vertex="1">
          <mxGeometry x="450" y="870" width="100" height="40" as="geometry" />
        </mxCell>
        <mxCell id="ipqaArvMK3mMuz51LQ_6-57" value="" style="rounded=0;whiteSpace=wrap;html=1;" parent="1" vertex="1">
          <mxGeometry x="550" y="870" width="100" height="40" as="geometry" />
        </mxCell>
        <mxCell id="ipqaArvMK3mMuz51LQ_6-58" value="" style="rounded=0;whiteSpace=wrap;html=1;" parent="1" vertex="1">
          <mxGeometry x="650" y="870" width="100" height="40" as="geometry" />
        </mxCell>
        <mxCell id="ipqaArvMK3mMuz51LQ_6-59" value="" style="rounded=0;whiteSpace=wrap;html=1;" parent="1" vertex="1">
          <mxGeometry x="750" y="870" width="100" height="40" as="geometry" />
        </mxCell>
        <mxCell id="ipqaArvMK3mMuz51LQ_6-60" value="&lt;u&gt;nome&lt;/u&gt;" style="text;html=1;strokeColor=none;fillColor=none;align=center;verticalAlign=middle;whiteSpace=wrap;rounded=0;" parent="1" vertex="1">
          <mxGeometry x="62.5" y="875" width="60" height="30" as="geometry" />
        </mxCell>
        <mxCell id="ipqaArvMK3mMuz51LQ_6-61" value="apelido" style="text;html=1;strokeColor=none;fillColor=none;align=center;verticalAlign=middle;whiteSpace=wrap;rounded=0;" parent="1" vertex="1">
          <mxGeometry x="168.75" y="875" width="60" height="30" as="geometry" />
        </mxCell>
        <mxCell id="ipqaArvMK3mMuz51LQ_6-62" value="data_criacao" style="text;html=1;strokeColor=none;fillColor=none;align=center;verticalAlign=middle;whiteSpace=wrap;rounded=0;" parent="1" vertex="1">
          <mxGeometry x="270" y="875" width="60" height="30" as="geometry" />
        </mxCell>
        <mxCell id="ipqaArvMK3mMuz51LQ_6-63" value="pontos" style="text;html=1;strokeColor=none;fillColor=none;align=center;verticalAlign=middle;whiteSpace=wrap;rounded=0;" parent="1" vertex="1">
          <mxGeometry x="365" y="875" width="60" height="30" as="geometry" />
        </mxCell>
        <mxCell id="ipqaArvMK3mMuz51LQ_6-64" value="vitorias" style="text;html=1;strokeColor=none;fillColor=none;align=center;verticalAlign=middle;whiteSpace=wrap;rounded=0;" parent="1" vertex="1">
          <mxGeometry x="470" y="875" width="60" height="30" as="geometry" />
        </mxCell>
        <mxCell id="ipqaArvMK3mMuz51LQ_6-65" value="gols_marcados" style="text;html=1;strokeColor=none;fillColor=none;align=center;verticalAlign=middle;whiteSpace=wrap;rounded=0;" parent="1" vertex="1">
          <mxGeometry x="572.5" y="875" width="60" height="30" as="geometry" />
        </mxCell>
        <mxCell id="ipqaArvMK3mMuz51LQ_6-66" value="gols_sofridos" style="text;html=1;strokeColor=none;fillColor=none;align=center;verticalAlign=middle;whiteSpace=wrap;rounded=0;" parent="1" vertex="1">
          <mxGeometry x="670" y="875" width="60" height="30" as="geometry" />
        </mxCell>
        <mxCell id="ipqaArvMK3mMuz51LQ_6-67" value="saldo_gols" style="text;html=1;strokeColor=none;fillColor=none;align=center;verticalAlign=middle;whiteSpace=wrap;rounded=0;" parent="1" vertex="1">
          <mxGeometry x="769.5" y="875" width="60" height="30" as="geometry" />
        </mxCell>
        <mxCell id="ipqaArvMK3mMuz51LQ_6-68" value="Não nulos (nome, apelido, data_criacao)" style="text;html=1;strokeColor=none;fillColor=none;align=center;verticalAlign=middle;whiteSpace=wrap;rounded=0;" parent="1" vertex="1">
          <mxGeometry x="-30" y="910" width="380" height="30" as="geometry" />
        </mxCell>
        <mxCell id="ipqaArvMK3mMuz51LQ_6-70" value="&amp;nbsp; Chave Primária (nome)" style="text;html=1;strokeColor=none;fillColor=none;align=center;verticalAlign=middle;whiteSpace=wrap;rounded=0;" parent="1" vertex="1">
          <mxGeometry x="40" y="930" width="140" height="30" as="geometry" />
        </mxCell>
        <mxCell id="ipqaArvMK3mMuz51LQ_6-71" value="Chave Primária Composta (rodada, time_mandante, time_visitante)" style="text;html=1;strokeColor=none;fillColor=none;align=center;verticalAlign=middle;whiteSpace=wrap;rounded=0;" parent="1" vertex="1">
          <mxGeometry x="-2.5" y="1060" width="472.5" height="30" as="geometry" />
        </mxCell>
      </root>
    </mxGraphModel>
  </diagram>
</mxfile>
